<svg xmlns="http://www.w3.org/2000/svg" viewBox="0 0 500 500"><g id="freepik--background-simple--inject-78"><path d="M484.63,234.09c-.56-39-15.81-76.61-39-105.65A203.67,203.67,0,0,0,397.79,85c-18.52-12-38.67-25.51-61-27.57a43.76,43.76,0,0,0-16.62,1.36c-20.85,6.24,20.41,28.48,25.8,31.73C288.28,65.73,228.59,40.57,165.56,42.94c-12.15.46-24.76,2.11-35.45,8.88s-19,19.83-17.36,32.78c1.31,10.7,8.51,22.66,1.76,31-1.93,2.4-4.67,3.81-7.35,5-13.79,6.3-28.68,9.6-41.74,17.62-20.23,12.41-34,35.21-40.43,59.2s-6.09,49.21-3.58,73.61C26.13,317,39,362.59,65,398.32c37.15,51,98.07,77,159.08,81.29,73.83,5.18,153.88-22,202.69-84.79,7.25-9.32,13.88-19.64,16.52-31.33s.55-25-7.56-32.67c-2.18-2.07-5-4.26-4.76-7.47.32-4.35,5.52-5.81,9.48-6.73,26-6,40.85-37.63,43.53-66.09A151,151,0,0,0,484.63,234.09Z" style="fill:#0B9031"></path><path d="M484.63,234.09c-.56-39-15.81-76.61-39-105.65A203.67,203.67,0,0,0,397.79,85c-18.52-12-38.67-25.51-61-27.57a43.76,43.76,0,0,0-16.62,1.36c-20.85,6.24,20.41,28.48,25.8,31.73C288.28,65.73,228.59,40.57,165.56,42.94c-12.15.46-24.76,2.11-35.45,8.88s-19,19.83-17.36,32.78c1.31,10.7,8.51,22.66,1.76,31-1.93,2.4-4.67,3.81-7.35,5-13.79,6.3-28.68,9.6-41.74,17.62-20.23,12.41-34,35.21-40.43,59.2s-6.09,49.21-3.58,73.61C26.13,317,39,362.59,65,398.32c37.15,51,98.07,77,159.08,81.29,73.83,5.18,153.88-22,202.69-84.79,7.25-9.32,13.88-19.64,16.52-31.33s.55-25-7.56-32.67c-2.18-2.07-5-4.26-4.76-7.47.32-4.35,5.52-5.81,9.48-6.73,26-6,40.85-37.63,43.53-66.09A151,151,0,0,0,484.63,234.09Z" style="fill:#fff;opacity:0.7000000000000001"></path></g><g id="freepik--City--inject-78"><g style="opacity:0.30000000000000004"><polyline points="12.84 352.36 27.68 352.36 27.68 283.04 47.83 283.04 47.83 250.66 85.93 250.66 85.93 314.86 95.73 314.86 95.73 190.34 137.64 190.34 137.64 244.97 163.77 244.97 163.77 197.81 208.41 197.81 208.41 304.07 269.38 304.07 269.38 240.57 309.2 240.57 309.2 304.63 333.61 304.63 333.61 312.02 348.85 312.02 348.85 262.48 359.19 262.48 359.19 312.02 366.27 312.02 366.27 259.75 377.7 259.75 377.7 309.75 391.85 309.75 391.85 225.66 417.44 225.66 417.44 280.77 432.13 280.77 432.13 198.38 468.06 198.38 468.06 364.86" style="fill:none;stroke:#000;stroke-linecap:round;stroke-miterlimit:10"></polyline><rect x="33.67" y="294.41" width="4.35" height="5.68" style="fill:none;stroke:#000;stroke-linecap:round;stroke-miterlimit:10"></rect><rect x="40.75" y="294.41" width="4.35" height="5.68" style="fill:none;stroke:#000;stroke-linecap:round;stroke-miterlimit:10"></rect><rect x="47.82" y="294.41" width="4.35" height="5.68" style="fill:none;stroke:#000;stroke-linecap:round;stroke-miterlimit:10"></rect><rect x="54.9" y="294.41" width="4.35" height="5.68" style="fill:none;stroke:#000;stroke-linecap:round;stroke-miterlimit:10"></rect><rect x="61.98" y="294.41" width="4.35" height="5.68" style="fill:none;stroke:#000;stroke-linecap:round;stroke-miterlimit:10"></rect><rect x="69.05" y="294.41" width="4.35" height="5.68" style="fill:none;stroke:#000;stroke-linecap:round;stroke-miterlimit:10"></rect><rect x="102.26" y="252.36" width="4.35" height="5.68" style="fill:none;stroke:#000;stroke-linecap:round;stroke-miterlimit:10"></rect><rect x="109.34" y="252.36" width="4.35" height="5.68" style="fill:none;stroke:#000;stroke-linecap:round;stroke-miterlimit:10"></rect><rect x="116.41" y="252.36" width="4.35" height="5.68" style="fill:none;stroke:#000;stroke-linecap:round;stroke-miterlimit:10"></rect><rect x="123.49" y="252.36" width="4.35" height="5.68" style="fill:none;stroke:#000;stroke-linecap:round;stroke-miterlimit:10"></rect><rect x="102.26" y="242.13" width="4.35" height="5.68" style="fill:none;stroke:#000;stroke-linecap:round;stroke-miterlimit:10"></rect><rect x="109.34" y="242.13" width="4.35" height="5.68" style="fill:none;stroke:#000;stroke-linecap:round;stroke-miterlimit:10"></rect><rect x="116.41" y="242.13" width="4.35" height="5.68" style="fill:none;stroke:#000;stroke-linecap:round;stroke-miterlimit:10"></rect><rect x="123.49" y="242.13" width="4.35" height="5.68" style="fill:none;stroke:#000;stroke-linecap:round;stroke-miterlimit:10"></rect><rect x="102.26" y="231.91" width="4.35" height="5.68" style="fill:none;stroke:#000;stroke-linecap:round;stroke-miterlimit:10"></rect><rect x="109.34" y="231.91" width="4.35" height="5.68" style="fill:none;stroke:#000;stroke-linecap:round;stroke-miterlimit:10"></rect><rect x="116.41" y="231.91" width="4.35" height="5.68" style="fill:none;stroke:#000;stroke-linecap:round;stroke-miterlimit:10"></rect><rect x="123.49" y="231.91" width="4.35" height="5.68" style="fill:none;stroke:#000;stroke-linecap:round;stroke-miterlimit:10"></rect><rect x="102.26" y="221.68" width="4.35" height="5.68" style="fill:none;stroke:#000;stroke-linecap:round;stroke-miterlimit:10"></rect><rect x="109.34" y="221.68" width="4.35" height="5.68" style="fill:none;stroke:#000;stroke-linecap:round;stroke-miterlimit:10"></rect><rect x="116.41" y="221.68" width="4.35" height="5.68" style="fill:none;stroke:#000;stroke-linecap:round;stroke-miterlimit:10"></rect><rect x="123.49" y="221.68" width="4.35" height="5.68" style="fill:none;stroke:#000;stroke-linecap:round;stroke-miterlimit:10"></rect><rect x="102.26" y="211.45" width="4.35" height="5.68" style="fill:none;stroke:#000;stroke-linecap:round;stroke-miterlimit:10"></rect><rect x="109.34" y="211.45" width="4.35" height="5.68" style="fill:none;stroke:#000;stroke-linecap:round;stroke-miterlimit:10"></rect><rect x="116.41" y="211.45" width="4.35" height="5.68" style="fill:none;stroke:#000;stroke-linecap:round;stroke-miterlimit:10"></rect><rect x="123.49" y="211.45" width="4.35" height="5.68" style="fill:none;stroke:#000;stroke-linecap:round;stroke-miterlimit:10"></rect><rect x="130.57" y="252.36" width="4.35" height="5.68" style="fill:none;stroke:#000;stroke-linecap:round;stroke-miterlimit:10"></rect><rect x="137.64" y="252.36" width="4.35" height="5.68" style="fill:none;stroke:#000;stroke-linecap:round;stroke-miterlimit:10"></rect><rect x="102.26" y="263.72" width="4.35" height="5.68" style="fill:none;stroke:#000;stroke-linecap:round;stroke-miterlimit:10"></rect><rect x="109.34" y="263.72" width="4.35" height="5.68" style="fill:none;stroke:#000;stroke-linecap:round;stroke-miterlimit:10"></rect><rect x="116.41" y="263.72" width="4.35" height="5.68" style="fill:none;stroke:#000;stroke-linecap:round;stroke-miterlimit:10"></rect><rect x="123.49" y="263.72" width="4.35" height="5.68" style="fill:none;stroke:#000;stroke-linecap:round;stroke-miterlimit:10"></rect><rect x="130.57" y="263.72" width="4.35" height="5.68" style="fill:none;stroke:#000;stroke-linecap:round;stroke-miterlimit:10"></rect><rect x="137.64" y="263.72" width="4.35" height="5.68" style="fill:none;stroke:#000;stroke-linecap:round;stroke-miterlimit:10"></rect><rect x="33.67" y="306.34" width="4.35" height="5.68" style="fill:none;stroke:#000;stroke-linecap:round;stroke-miterlimit:10"></rect><rect x="40.75" y="306.34" width="4.35" height="5.68" style="fill:none;stroke:#000;stroke-linecap:round;stroke-miterlimit:10"></rect><rect x="47.82" y="306.34" width="4.35" height="5.68" style="fill:none;stroke:#000;stroke-linecap:round;stroke-miterlimit:10"></rect><rect x="54.9" y="306.34" width="4.35" height="5.68" style="fill:none;stroke:#000;stroke-linecap:round;stroke-miterlimit:10"></rect><rect x="61.98" y="306.34" width="4.35" height="5.68" style="fill:none;stroke:#000;stroke-linecap:round;stroke-miterlimit:10"></rect><rect x="69.05" y="306.34" width="4.35" height="5.68" style="fill:none;stroke:#000;stroke-linecap:round;stroke-miterlimit:10"></rect><rect x="33.67" y="318.27" width="4.35" height="5.68" style="fill:none;stroke:#000;stroke-linecap:round;stroke-miterlimit:10"></rect><rect x="40.75" y="318.27" width="4.35" height="5.68" style="fill:none;stroke:#000;stroke-linecap:round;stroke-miterlimit:10"></rect><rect x="47.82" y="318.27" width="4.35" height="5.68" style="fill:none;stroke:#000;stroke-linecap:round;stroke-miterlimit:10"></rect><rect x="54.9" y="318.27" width="4.35" height="5.68" style="fill:none;stroke:#000;stroke-linecap:round;stroke-miterlimit:10"></rect><rect x="61.98" y="318.27" width="4.35" height="5.68" style="fill:none;stroke:#000;stroke-linecap:round;stroke-miterlimit:10"></rect><rect x="69.05" y="318.27" width="4.35" height="5.68" style="fill:none;stroke:#000;stroke-linecap:round;stroke-miterlimit:10"></rect><rect x="33.67" y="330.2" width="4.35" height="5.68" style="fill:none;stroke:#000;stroke-linecap:round;stroke-miterlimit:10"></rect><rect x="40.75" y="330.2" width="4.35" height="5.68" style="fill:none;stroke:#000;stroke-linecap:round;stroke-miterlimit:10"></rect><rect x="47.82" y="330.2" width="4.35" height="5.68" style="fill:none;stroke:#000;stroke-linecap:round;stroke-miterlimit:10"></rect><rect x="54.9" y="330.2" width="4.35" height="5.68" style="fill:none;stroke:#000;stroke-linecap:round;stroke-miterlimit:10"></rect><rect x="61.98" y="330.2" width="4.35" height="5.68" style="fill:none;stroke:#000;stroke-linecap:round;stroke-miterlimit:10"></rect><rect x="69.05" y="330.2" width="4.35" height="5.68" style="fill:none;stroke:#000;stroke-linecap:round;stroke-miterlimit:10"></rect><rect x="33.67" y="342.14" width="4.35" height="5.68" style="fill:none;stroke:#000;stroke-linecap:round;stroke-miterlimit:10"></rect><rect x="40.75" y="342.14" width="4.35" height="5.68" style="fill:none;stroke:#000;stroke-linecap:round;stroke-miterlimit:10"></rect><rect x="47.82" y="342.14" width="4.35" height="5.68" style="fill:none;stroke:#000;stroke-linecap:round;stroke-miterlimit:10"></rect><rect x="54.9" y="342.14" width="4.35" height="5.68" style="fill:none;stroke:#000;stroke-linecap:round;stroke-miterlimit:10"></rect><rect x="61.98" y="342.14" width="4.35" height="5.68" style="fill:none;stroke:#000;stroke-linecap:round;stroke-miterlimit:10"></rect><rect x="69.05" y="342.14" width="4.35" height="5.68" style="fill:none;stroke:#000;stroke-linecap:round;stroke-miterlimit:10"></rect><rect x="445.74" y="210.31" width="4.35" height="5.68" style="fill:none;stroke:#000;stroke-linecap:round;stroke-miterlimit:10"></rect><rect x="452.82" y="210.31" width="4.35" height="5.68" style="fill:none;stroke:#000;stroke-linecap:round;stroke-miterlimit:10"></rect><rect x="459.9" y="210.31" width="4.35" height="5.68" style="fill:none;stroke:#000;stroke-linecap:round;stroke-miterlimit:10"></rect><rect x="445.74" y="224.52" width="4.35" height="5.68" style="fill:none;stroke:#000;stroke-linecap:round;stroke-miterlimit:10"></rect><rect x="452.82" y="224.52" width="4.35" height="5.68" style="fill:none;stroke:#000;stroke-linecap:round;stroke-miterlimit:10"></rect><rect x="459.9" y="224.52" width="4.35" height="5.68" style="fill:none;stroke:#000;stroke-linecap:round;stroke-miterlimit:10"></rect><rect x="445.74" y="238.72" width="4.35" height="5.68" style="fill:none;stroke:#000;stroke-linecap:round;stroke-miterlimit:10"></rect><rect x="452.82" y="238.72" width="4.35" height="5.68" style="fill:none;stroke:#000;stroke-linecap:round;stroke-miterlimit:10"></rect><rect x="459.9" y="238.72" width="4.35" height="5.68" style="fill:none;stroke:#000;stroke-linecap:round;stroke-miterlimit:10"></rect><rect x="445.74" y="252.93" width="4.35" height="5.68" style="fill:none;stroke:#000;stroke-linecap:round;stroke-miterlimit:10"></rect><rect x="452.82" y="252.93" width="4.35" height="5.68" style="fill:none;stroke:#000;stroke-linecap:round;stroke-miterlimit:10"></rect><rect x="459.9" y="252.93" width="4.35" height="5.68" style="fill:none;stroke:#000;stroke-linecap:round;stroke-miterlimit:10"></rect><rect x="445.74" y="267.13" width="4.35" height="5.68" style="fill:none;stroke:#000;stroke-linecap:round;stroke-miterlimit:10"></rect><rect x="452.82" y="267.13" width="4.35" height="5.68" style="fill:none;stroke:#000;stroke-linecap:round;stroke-miterlimit:10"></rect><rect x="459.9" y="267.13" width="4.35" height="5.68" style="fill:none;stroke:#000;stroke-linecap:round;stroke-miterlimit:10"></rect><rect x="445.74" y="281.34" width="4.35" height="5.68" style="fill:none;stroke:#000;stroke-linecap:round;stroke-miterlimit:10"></rect><rect x="452.82" y="281.34" width="4.35" height="5.68" style="fill:none;stroke:#000;stroke-linecap:round;stroke-miterlimit:10"></rect><rect x="459.9" y="281.34" width="4.35" height="5.68" style="fill:none;stroke:#000;stroke-linecap:round;stroke-miterlimit:10"></rect><rect x="445.74" y="295.54" width="4.35" height="5.68" style="fill:none;stroke:#000;stroke-linecap:round;stroke-miterlimit:10"></rect><rect x="452.82" y="295.54" width="4.35" height="5.68" style="fill:none;stroke:#000;stroke-linecap:round;stroke-miterlimit:10"></rect><rect x="459.9" y="295.54" width="4.35" height="5.68" style="fill:none;stroke:#000;stroke-linecap:round;stroke-miterlimit:10"></rect><rect x="445.74" y="309.75" width="4.35" height="5.68" style="fill:none;stroke:#000;stroke-linecap:round;stroke-miterlimit:10"></rect><rect x="452.82" y="309.75" width="4.35" height="5.68" style="fill:none;stroke:#000;stroke-linecap:round;stroke-miterlimit:10"></rect><rect x="459.9" y="309.75" width="4.35" height="5.68" style="fill:none;stroke:#000;stroke-linecap:round;stroke-miterlimit:10"></rect><rect x="445.74" y="323.95" width="4.35" height="5.68" style="fill:none;stroke:#000;stroke-linecap:round;stroke-miterlimit:10"></rect><rect x="452.82" y="323.95" width="4.35" height="5.68" style="fill:none;stroke:#000;stroke-linecap:round;stroke-miterlimit:10"></rect><rect x="399.41" y="238.72" width="4.35" height="5.68" style="fill:none;stroke:#000;stroke-linecap:round;stroke-miterlimit:10"></rect><rect x="406.49" y="238.72" width="4.35" height="5.68" style="fill:none;stroke:#000;stroke-linecap:round;stroke-miterlimit:10"></rect><rect x="399.41" y="252.93" width="4.35" height="5.68" style="fill:none;stroke:#000;stroke-linecap:round;stroke-miterlimit:10"></rect><rect x="406.49" y="252.93" width="4.35" height="5.68" style="fill:none;stroke:#000;stroke-linecap:round;stroke-miterlimit:10"></rect><rect x="399.41" y="267.13" width="4.35" height="5.68" style="fill:none;stroke:#000;stroke-linecap:round;stroke-miterlimit:10"></rect><rect x="406.49" y="267.13" width="4.35" height="5.68" style="fill:none;stroke:#000;stroke-linecap:round;stroke-miterlimit:10"></rect><rect x="399.41" y="281.34" width="4.35" height="5.68" style="fill:none;stroke:#000;stroke-linecap:round;stroke-miterlimit:10"></rect><rect x="406.49" y="281.34" width="4.35" height="5.68" style="fill:none;stroke:#000;stroke-linecap:round;stroke-miterlimit:10"></rect><rect x="399.41" y="295.54" width="4.35" height="5.68" style="fill:none;stroke:#000;stroke-linecap:round;stroke-miterlimit:10"></rect><rect x="406.49" y="295.54" width="4.35" height="5.68" style="fill:none;stroke:#000;stroke-linecap:round;stroke-miterlimit:10"></rect><rect x="399.41" y="309.75" width="4.35" height="5.68" style="fill:none;stroke:#000;stroke-linecap:round;stroke-miterlimit:10"></rect><rect x="406.49" y="309.75" width="4.35" height="5.68" style="fill:none;stroke:#000;stroke-linecap:round;stroke-miterlimit:10"></rect><rect x="399.41" y="323.95" width="4.35" height="5.68" style="fill:none;stroke:#000;stroke-linecap:round;stroke-miterlimit:10"></rect><rect x="406.49" y="323.95" width="4.35" height="5.68" style="fill:none;stroke:#000;stroke-linecap:round;stroke-miterlimit:10"></rect><rect x="274.69" y="252.93" width="4.35" height="5.68" style="fill:none;stroke:#000;stroke-linecap:round;stroke-miterlimit:10"></rect><rect x="281.77" y="252.93" width="4.35" height="5.68" style="fill:none;stroke:#000;stroke-linecap:round;stroke-miterlimit:10"></rect><rect x="274.69" y="267.13" width="4.35" height="5.68" style="fill:none;stroke:#000;stroke-linecap:round;stroke-miterlimit:10"></rect><rect x="281.77" y="267.13" width="4.35" height="5.68" style="fill:none;stroke:#000;stroke-linecap:round;stroke-miterlimit:10"></rect><rect x="274.69" y="281.34" width="4.35" height="5.68" style="fill:none;stroke:#000;stroke-linecap:round;stroke-miterlimit:10"></rect><rect x="281.77" y="281.34" width="4.35" height="5.68" style="fill:none;stroke:#000;stroke-linecap:round;stroke-miterlimit:10"></rect><rect x="274.69" y="295.54" width="4.35" height="5.68" style="fill:none;stroke:#000;stroke-linecap:round;stroke-miterlimit:10"></rect><rect x="281.77" y="295.54" width="4.35" height="5.68" style="fill:none;stroke:#000;stroke-linecap:round;stroke-miterlimit:10"></rect><rect x="274.69" y="309.75" width="4.35" height="5.68" style="fill:none;stroke:#000;stroke-linecap:round;stroke-miterlimit:10"></rect><rect x="281.77" y="309.75" width="4.35" height="5.68" style="fill:none;stroke:#000;stroke-linecap:round;stroke-miterlimit:10"></rect><rect x="274.69" y="323.95" width="4.35" height="5.68" style="fill:none;stroke:#000;stroke-linecap:round;stroke-miterlimit:10"></rect><rect x="281.77" y="323.95" width="4.35" height="5.68" style="fill:none;stroke:#000;stroke-linecap:round;stroke-miterlimit:10"></rect><rect x="290.72" y="252.93" width="4.35" height="5.68" style="fill:none;stroke:#000;stroke-linecap:round;stroke-miterlimit:10"></rect><rect x="297.79" y="252.93" width="4.35" height="5.68" style="fill:none;stroke:#000;stroke-linecap:round;stroke-miterlimit:10"></rect><rect x="290.72" y="267.13" width="4.35" height="5.68" style="fill:none;stroke:#000;stroke-linecap:round;stroke-miterlimit:10"></rect><rect x="297.79" y="267.13" width="4.35" height="5.68" style="fill:none;stroke:#000;stroke-linecap:round;stroke-miterlimit:10"></rect><rect x="290.72" y="281.34" width="4.35" height="5.68" style="fill:none;stroke:#000;stroke-linecap:round;stroke-miterlimit:10"></rect><rect x="297.79" y="281.34" width="4.35" height="5.68" style="fill:none;stroke:#000;stroke-linecap:round;stroke-miterlimit:10"></rect><rect x="290.72" y="295.54" width="4.35" height="5.68" style="fill:none;stroke:#000;stroke-linecap:round;stroke-miterlimit:10"></rect><rect x="297.79" y="295.54" width="4.35" height="5.68" style="fill:none;stroke:#000;stroke-linecap:round;stroke-miterlimit:10"></rect><rect x="290.72" y="309.75" width="4.35" height="5.68" style="fill:none;stroke:#000;stroke-linecap:round;stroke-miterlimit:10"></rect><rect x="297.79" y="309.75" width="4.35" height="5.68" style="fill:none;stroke:#000;stroke-linecap:round;stroke-miterlimit:10"></rect><rect x="290.72" y="323.95" width="4.35" height="5.68" style="fill:none;stroke:#000;stroke-linecap:round;stroke-miterlimit:10"></rect><rect x="297.79" y="323.95" width="4.35" height="5.68" style="fill:none;stroke:#000;stroke-linecap:round;stroke-miterlimit:10"></rect><rect x="179.48" y="210.31" width="4.35" height="5.68" style="fill:none;stroke:#000;stroke-linecap:round;stroke-miterlimit:10"></rect><rect x="186.56" y="210.31" width="4.35" height="5.68" style="fill:none;stroke:#000;stroke-linecap:round;stroke-miterlimit:10"></rect><rect x="179.48" y="224.52" width="4.35" height="5.68" style="fill:none;stroke:#000;stroke-linecap:round;stroke-miterlimit:10"></rect><rect x="186.56" y="224.52" width="4.35" height="5.68" style="fill:none;stroke:#000;stroke-linecap:round;stroke-miterlimit:10"></rect><rect x="179.48" y="238.72" width="4.35" height="5.68" style="fill:none;stroke:#000;stroke-linecap:round;stroke-miterlimit:10"></rect><rect x="186.56" y="238.72" width="4.35" height="5.68" style="fill:none;stroke:#000;stroke-linecap:round;stroke-miterlimit:10"></rect><rect x="179.48" y="252.93" width="4.35" height="5.68" style="fill:none;stroke:#000;stroke-linecap:round;stroke-miterlimit:10"></rect><rect x="186.56" y="252.93" width="4.35" height="5.68" style="fill:none;stroke:#000;stroke-linecap:round;stroke-miterlimit:10"></rect><rect x="179.48" y="267.13" width="4.35" height="5.68" style="fill:none;stroke:#000;stroke-linecap:round;stroke-miterlimit:10"></rect><rect x="186.56" y="267.13" width="4.35" height="5.68" style="fill:none;stroke:#000;stroke-linecap:round;stroke-miterlimit:10"></rect><rect x="179.48" y="281.34" width="4.35" height="5.68" style="fill:none;stroke:#000;stroke-linecap:round;stroke-miterlimit:10"></rect><rect x="186.56" y="281.34" width="4.35" height="5.68" style="fill:none;stroke:#000;stroke-linecap:round;stroke-miterlimit:10"></rect><rect x="179.48" y="295.54" width="4.35" height="5.68" style="fill:none;stroke:#000;stroke-linecap:round;stroke-miterlimit:10"></rect><rect x="186.56" y="295.54" width="4.35" height="5.68" style="fill:none;stroke:#000;stroke-linecap:round;stroke-miterlimit:10"></rect><rect x="179.48" y="309.75" width="4.35" height="5.68" style="fill:none;stroke:#000;stroke-linecap:round;stroke-miterlimit:10"></rect><rect x="186.56" y="309.75" width="4.35" height="5.68" style="fill:none;stroke:#000;stroke-linecap:round;stroke-miterlimit:10"></rect><rect x="179.48" y="323.95" width="4.35" height="5.68" style="fill:none;stroke:#000;stroke-linecap:round;stroke-miterlimit:10"></rect><rect x="186.56" y="323.95" width="4.35" height="5.68" style="fill:none;stroke:#000;stroke-linecap:round;stroke-miterlimit:10"></rect><rect x="459.9" y="323.95" width="4.35" height="5.68" style="fill:none;stroke:#000;stroke-linecap:round;stroke-miterlimit:10"></rect></g></g><g id="freepik--Clouds--inject-78"><g style="opacity:0.30000000000000004"><path d="M301.86,146.18s-4.92-9.33-12.05-11.54-11.37.17-13.07,2.55a12.11,12.11,0,0,0-2,4.92s-9.17-2.71-11.88-.17a7,7,0,0,0-1.87,6.28s-6.62-1.36-8.15,1-1.52,3.56-1.52,3.56-5.61-.17-6.45.85a11.89,11.89,0,0,0-1.36,2l-5.09,1.19H320.7l-5.6-2s-2-8.15-5.09-10.69S304.24,142.28,301.86,146.18Z" style="fill:none;stroke:#000;stroke-linecap:round;stroke-linejoin:round"></path><path d="M301.86,146.18s-1,2,0,5.6c0,0-3.06-2.2-5.6-1.35a3.12,3.12,0,0,0-2.38,3" style="fill:none;stroke:#000;stroke-linecap:round;stroke-linejoin:round"></path><path d="M274.71,142.11l-.17,3.74s-3.4-2.21-5.43-.51-1.36,4.58-1.36,4.58-2,0-2.55.68l-.51.68" style="fill:none;stroke:#000;stroke-linecap:round;stroke-linejoin:round"></path></g><g style="opacity:0.30000000000000004"><path d="M418.63,68.62s-4.92-9.33-12.05-11.54-11.37.17-13.07,2.55a12.16,12.16,0,0,0-2,4.92s-9.16-2.72-11.88-.17a7.05,7.05,0,0,0-1.86,6.28s-6.62-1.36-8.15,1-1.53,3.56-1.53,3.56-5.6-.17-6.45.85a12.18,12.18,0,0,0-1.35,2l-5.09,1.18h82.31l-5.61-2s-2-8.15-5.09-10.69S421,64.72,418.63,68.62Z" style="fill:none;stroke:#000;stroke-linecap:round;stroke-linejoin:round"></path><path d="M418.63,68.62s-1,2,0,5.6c0,0-3.06-2.2-5.6-1.35a3.11,3.11,0,0,0-2.38,3" style="fill:none;stroke:#000;stroke-linecap:round;stroke-linejoin:round"></path><path d="M391.47,64.55l-.17,3.73s-3.39-2.2-5.43-.51-1.35,4.59-1.35,4.59-2,0-2.55.68l-.51.67" style="fill:none;stroke:#000;stroke-linecap:round;stroke-linejoin:round"></path></g><g style="opacity:0.30000000000000004"><path d="M261.74,97.71s-11.29-21.42-27.66-26.49-26.09.39-30,5.84a27.93,27.93,0,0,0-4.67,11.3s-21-6.23-27.27-.39-4.29,14.41-4.29,14.41-15.19-3.11-18.7,2.34-3.5,8.18-3.5,8.18-12.86-.39-14.8,1.95a27.44,27.44,0,0,0-3.12,4.67l-11.69,2.73H305l-12.85-4.67S287.45,98.88,280.44,93,267.2,88.75,261.74,97.71Z" style="fill:none;stroke:#000;stroke-linecap:round;stroke-linejoin:round"></path><path d="M261.74,97.71s-2.34,4.67,0,12.85c0,0-7-5.06-12.85-3.11s-5.46,7-5.46,7" style="fill:none;stroke:#000;stroke-linecap:round;stroke-linejoin:round"></path><path d="M199.42,88.36,199,96.93s-7.8-5.06-12.47-1.17-3.12,10.52-3.12,10.52-4.67,0-5.84,1.56l-1.17,1.56" style="fill:none;stroke:#000;stroke-linecap:round;stroke-linejoin:round"></path></g></g><g id="freepik--Streetlight--inject-78"><polygon points="86.17 448.45 71.68 448.45 73.85 80.7 83.99 80.7 86.17 448.45" style="fill:#263238"></polygon><polygon points="90.22 78.92 66.69 78.92 63.75 44.37 93.17 44.37 90.22 78.92" style="fill:#263238"></polygon><polygon points="87.6 78.92 69.32 78.92 67.04 44.37 89.88 44.37 87.6 78.92" style="fill:#fff"></polygon><rect x="61.45" y="41.18" width="34.19" height="5.76" style="fill:#263238"></rect><rect x="64.14" y="75.18" width="28.81" height="7.11" style="fill:#263238"></rect><rect x="66.06" y="37.34" width="24.59" height="3.84" style="fill:#263238"></rect><rect x="75.7" y="31.61" width="4.23" height="5.76" style="fill:#263238"></rect><rect x="66.47" y="426.48" width="25.5" height="30.95" style="fill:#263238"></rect></g><g id="freepik--Bushes--inject-78"><path d="M35.91,456.85c-1-9.1,6.4-18.88,15.76-19.33,8.4-.41,17.63,5.25,24.63.58,5.73-3.81,5.85-11.94,6.5-18.79s2.52-13.75,7-18.91,12-8.09,18.39-5.73c12.9,4.76,13.71,25.94,26.9,29.84,9.13,2.69,18.65-4.9,28-3.22,11.48,2.06,16.66,14.76,25.46,21,.91.64,4.74,3.41,9.13,6.61,3.68,2.69,7.74,5.68,10.8,8Z" style="fill:#0B9031"></path><path d="M35.91,456.85c-1-9.1,6.4-18.88,15.76-19.33,8.4-.41,17.63,5.25,24.63.58,5.73-3.81,5.85-11.94,6.5-18.79s2.52-13.75,7-18.91,12-8.09,18.39-5.73c12.9,4.76,13.71,25.94,26.9,29.84,9.13,2.69,18.65-4.9,28-3.22,11.48,2.06,16.66,14.76,25.46,21,.91.64,4.74,3.41,9.13,6.61,3.68,2.69,7.74,5.68,10.8,8Z" style="fill:#fff;opacity:0.4"></path><line x1="143.02" y1="456.1" x2="150.26" y2="434.93" style="fill:none;stroke:#263238;stroke-linecap:round;stroke-linejoin:round"></line><line x1="117.4" y1="456.66" x2="102.36" y2="416" style="fill:none;stroke:#263238;stroke-linecap:round;stroke-linejoin:round"></line><line x1="62.81" y1="456.66" x2="53.9" y2="448.3" style="fill:none;stroke:#263238;stroke-linecap:round;stroke-linejoin:round"></line><line x1="145.02" y1="451.08" x2="140.24" y2="438.28" style="fill:none;stroke:#263238;stroke-linecap:round;stroke-linejoin:round"></line><line x1="145.95" y1="447.95" x2="162.52" y2="443.84" style="fill:none;stroke:#263238;stroke-linecap:round;stroke-linejoin:round"></line><line x1="106.82" y1="428.25" x2="111.27" y2="421.01" style="fill:none;stroke:#263238;stroke-linecap:round;stroke-linejoin:round"></line><line x1="111.27" y1="439.39" x2="95.12" y2="430.48" style="fill:none;stroke:#263238;stroke-linecap:round;stroke-linejoin:round"></line><line x1="116.09" y1="453.53" x2="101.25" y2="448.3" style="fill:none;stroke:#263238;stroke-linecap:round;stroke-linejoin:round"></line><line x1="114.06" y1="447.74" x2="123.53" y2="431.03" style="fill:none;stroke:#263238;stroke-linecap:round;stroke-linejoin:round"></line><path d="M100.92,416a1.44,1.44,0,1,0,1.44-1.44A1.44,1.44,0,0,0,100.92,416Z" style="fill:#263238"></path><path d="M109.94,420.88a1.44,1.44,0,1,0,1.44-1.44A1.45,1.45,0,0,0,109.94,420.88Z" style="fill:#263238"></path><path d="M93.68,430.48A1.44,1.44,0,1,0,95.12,429,1.44,1.44,0,0,0,93.68,430.48Z" style="fill:#263238"></path><path d="M122.09,431a1.44,1.44,0,1,0,1.44-1.43A1.43,1.43,0,0,0,122.09,431Z" style="fill:#263238"></path><path d="M99.06,448.08a1.44,1.44,0,1,0,1.43-1.44A1.44,1.44,0,0,0,99.06,448.08Z" style="fill:#263238"></path><path d="M53,448.64a1.44,1.44,0,1,0,1.44-1.43A1.43,1.43,0,0,0,53,448.64Z" style="fill:#263238"></path><path d="M148.83,434.93a1.44,1.44,0,1,0,1.43-1.43A1.43,1.43,0,0,0,148.83,434.93Z" style="fill:#263238"></path><path d="M139.06,438.31a1.44,1.44,0,1,0,1.43-1.43A1.43,1.43,0,0,0,139.06,438.31Z" style="fill:#263238"></path><path d="M161.08,443.84a1.44,1.44,0,1,0,1.44-1.43A1.43,1.43,0,0,0,161.08,443.84Z" style="fill:#263238"></path><path d="M471.11,456.85c1-9.1,4.12-18.88-5.24-19.33-8.4-.41-17.64,5.25-24.64.58-5.72-3.81-5.84-11.94-6.49-18.79s-2.52-13.75-7-18.91-12-8.09-18.39-5.73c-12.91,4.76-13.71,25.94-26.9,29.84-9.13,2.69-18.65-4.9-28-3.22-11.48,2.06-16.66,14.76-25.46,21-.91.64-4.74,3.41-9.13,6.61-3.68,2.69-7.74,5.68-10.8,8Z" style="fill:#0B9031"></path><path d="M471.11,456.85c1-9.1,4.12-18.88-5.24-19.33-8.4-.41-17.64,5.25-24.64.58-5.72-3.81-5.84-11.94-6.49-18.79s-2.52-13.75-7-18.91-12-8.09-18.39-5.73c-12.91,4.76-13.71,25.94-26.9,29.84-9.13,2.69-18.65-4.9-28-3.22-11.48,2.06-16.66,14.76-25.46,21-.91.64-4.74,3.41-9.13,6.61-3.68,2.69-7.74,5.68-10.8,8Z" style="fill:#fff;opacity:0.4"></path><line x1="374.52" y1="456.1" x2="367.28" y2="434.93" style="fill:none;stroke:#263238;stroke-linecap:round;stroke-linejoin:round"></line><line x1="400.14" y1="456.66" x2="415.18" y2="416" style="fill:none;stroke:#263238;stroke-linecap:round;stroke-linejoin:round"></line><line x1="454.72" y1="456.66" x2="463.64" y2="448.3" style="fill:none;stroke:#263238;stroke-linecap:round;stroke-linejoin:round"></line><line x1="372.52" y1="451.08" x2="377.3" y2="438.27" style="fill:none;stroke:#263238;stroke-linecap:round;stroke-linejoin:round"></line><line x1="371.59" y1="447.95" x2="355.02" y2="443.84" style="fill:none;stroke:#263238;stroke-linecap:round;stroke-linejoin:round"></line><line x1="410.72" y1="428.25" x2="406.27" y2="421.01" style="fill:none;stroke:#263238;stroke-linecap:round;stroke-linejoin:round"></line><line x1="406.27" y1="439.39" x2="422.42" y2="430.48" style="fill:none;stroke:#263238;stroke-linecap:round;stroke-linejoin:round"></line><line x1="401.45" y1="453.53" x2="416.29" y2="448.3" style="fill:none;stroke:#263238;stroke-linecap:round;stroke-linejoin:round"></line><line x1="403.48" y1="447.74" x2="394.01" y2="431.03" style="fill:none;stroke:#263238;stroke-linecap:round;stroke-linejoin:round"></line><path d="M416.61,416a1.44,1.44,0,1,1-1.43-1.44A1.43,1.43,0,0,1,416.61,416Z" style="fill:#263238"></path><path d="M407.6,420.88a1.44,1.44,0,1,1-1.44-1.44A1.45,1.45,0,0,1,407.6,420.88Z" style="fill:#263238"></path><path d="M423.85,430.48a1.44,1.44,0,1,1-1.43-1.44A1.43,1.43,0,0,1,423.85,430.48Z" style="fill:#263238"></path><path d="M395.45,431A1.44,1.44,0,1,1,394,429.6,1.43,1.43,0,0,1,395.45,431Z" style="fill:#263238"></path><path d="M418.48,448.08a1.44,1.44,0,1,1-1.43-1.44A1.44,1.44,0,0,1,418.48,448.08Z" style="fill:#263238"></path><path d="M464.51,448.64a1.44,1.44,0,1,1-1.44-1.43A1.44,1.44,0,0,1,464.51,448.64Z" style="fill:#263238"></path><path d="M368.71,434.93a1.44,1.44,0,1,1-1.43-1.43A1.43,1.43,0,0,1,368.71,434.93Z" style="fill:#263238"></path><path d="M378.48,438.31a1.44,1.44,0,1,1-1.43-1.43A1.43,1.43,0,0,1,378.48,438.31Z" style="fill:#263238"></path><path d="M356.46,443.84a1.44,1.44,0,1,1-1.44-1.43A1.43,1.43,0,0,1,356.46,443.84Z" style="fill:#263238"></path></g><g id="freepik--Floor--inject-78"><polyline points="17.34 461.72 39.02 458.64 32.92 457 42.22 456.17 40.23 452.01 46.86 454.51 51.84 451.46 53.17 455.06 56.82 452.01 57.15 455.62 61.47 453.4 62.13 456.45 76.07 452.01 75.74 454.51 79.39 453.12 86.69 455.62 87.02 452.57 92.66 455.62 92.99 453.4 95.32 455.06 97.97 451.18 101.62 456.17 110.25 452.29 110.25 455.89 115.56 453.95 116.23 455.89 120.87 453.95 125.85 455.89 148.09 453.12 147.09 455.34 152.07 454.23 158.38 453.68 161.03 455.89 163.69 453.95 167.67 455.89 168 452.85 171.32 455.89 175.96 452.29 176.96 455.89 185.92 452.85 186.25 456.17 203.84 453.68 202.18 455.89 208.82 455.34 213.47 456.72 218.44 452.85 226.08 455.89 226.41 453.95 230.39 455.62 232.05 452.29 234.71 455.62 240.02 453.4 240.68 455.34 245.33 454.23 247.65 456.17 255.95 455.06 256.61 457 268.89 454.23 270.22 456.72 275.2 453.12 278.18 455.34 279.51 451.74 283.83 454.78 288.8 451.74 287.81 455.34 292.12 453.4 293.78 455.62 299.09 453.95 300.75 455.89 303.41 455.06 306.73 455.89 314.36 453.12 317.68 455.34 319.67 453.12 321.99 455.06 323.65 452.57 326.64 456.17 330.95 453.68 332.94 456.17 337.26 452.57 338.59 455.89 350.53 454.23 357.83 452.85 356.51 455.89 365.47 453.68 369.45 455.62 370.78 452.29 375.43 454.51 377.75 452.29 380.74 454.23 384.39 452.85 387.37 455.34 395.34 452.85 397.66 455.34 402.64 453.12 403.63 455.34 409.61 453.95 409.94 456.17 414.59 453.68 418.24 454.51 421.56 452.29 423.22 454.51 425.87 452.01 426.87 455.06 434.5 453.12 436.82 455.34 442.13 453.12 445.12 455.62 446.45 452.57 453.42 455.89 452.75 452.01 457.73 454.51 457.73 452.01 461.05 454.78 463.04 451.18 464.37 454.23 467.13 452.7 468.35 452.01 468.02 455.89 473.99 453.68 473.99 455.89 481.63 455.06 479.68 458.64 497.22 460.18" style="fill:#0B9031;stroke:#263238;stroke-linecap:round;stroke-linejoin:round"></polyline></g><g id="freepik--character-1--inject-78"><path d="M219.5,248.28s-19.44,8.07-21.72,9.1-2.48,2.07-2.48,3.31-3.78,50.18-4.2,53.49,4.14,6,7.66,5.59,8.66-2.82,8.66-2.82l.08,11.37,55.85-2.69-2.49-54.51,26.72,2.95s6.66-2.1,6.52-3.72c-.29-3.42-7.57-8.29-8.11-12.19-.37-2.67-1.44-3-1.44-3l-29.89-7.28s-2.27-1.86-11.38-1.66S219.5,248.28,219.5,248.28Z" style="fill:#0B9031;stroke:#263238;stroke-linecap:round;stroke-linejoin:round"></path><path d="M303.61,256.84s-8.87,14.69-10.15,14.86-6.4,1.16-8.36-3.76.57-12.42.57-12.42l21-14.65s4.87-4.16,6.18-4.64,6.75-1.44,7.71-1.64,7.92-.68,9,.7.07,2.2-1.17,2.07a43.44,43.44,0,0,0-5.37.33s6.74,1.39,8.81,2.56,1.85,3,.58,3.21a29,29,0,0,1-5.27-.6s5,3.39,3.88,4.52-4.68-.21-4.68-.21,1.44,3.92-.76,4S320.5,249,320.5,249a24.79,24.79,0,0,1-7.34,1c-3.75-.11-5.61-.32-5.61-.32Z" style="fill:#fff;stroke:#263238;stroke-linecap:round;stroke-linejoin:round"></path><path d="M312.56,238.63l4.09,1s6.37.58,6.58,2.18.69,2-1.56,2.19a23.16,23.16,0,0,1-3.54,0,15.05,15.05,0,0,1-5.49,2.13,12.19,12.19,0,0,1-6.46-1" style="fill:#fff;stroke:#263238;stroke-linecap:round;stroke-linejoin:round"></path><path d="M281.83,259.72c.17-.68-3.37,5.07,1.86,10.47" style="fill:none;stroke:#263238;stroke-linecap:round;stroke-linejoin:round"></path><path d="M278.12,266.14s1.35,4.56,5.4,5.74" style="fill:none;stroke:#263238;stroke-linecap:round;stroke-linejoin:round"></path><polyline points="262.55 255.54 260.87 271.12 267.2 255.31" style="fill:none;stroke:#263238;stroke-linecap:round;stroke-linejoin:round"></polyline><path d="M195.77,306s6.38-4.11,12.11-.86" style="fill:none;stroke:#263238;stroke-linecap:round;stroke-linejoin:round"></path><line x1="207.36" y1="279.3" x2="206.49" y2="272.75" style="fill:none;stroke:#263238;stroke-linecap:round;stroke-linejoin:round"></line><path d="M199.34,301.19s9.95-.65,11.79,6.6l-3.25-24.54" style="fill:none;stroke:#263238;stroke-linecap:round;stroke-linejoin:round"></path><path d="M219.71,243.73s-3.11-.62-3.93,1.66-.83,9.92-1.66,14.27-1.45,6-.62,6.2,8.27-6.82,8.27-6.82a29.33,29.33,0,0,1,3.52,1.65c1.86,1,4.76,2.28,4.76,2.28s5.79-2.69,7-4.14l1.24-1.45s6.62,4.76,8.07,4.76,3.1-.83,1.86-2.69-3.52-8.27-5-13.24-2.48-5.79-3.93-6S219.71,243.73,219.71,243.73Z" style="fill:#0B9031;stroke:#263238;stroke-linecap:round;stroke-linejoin:round"></path><path d="M217.84,238.35s.83,9.72,2.49,13.65,7.24,9.93,9.72,11,9.72-12.21,9.93-14.69.82-9.93.82-9.93Z" style="fill:#fff;stroke:#263238;stroke-linecap:round;stroke-linejoin:round"></path><path d="M213.29,194.3s-7,2.69-9.51,6-3.93,8.48-4.34,9.1-2.69-.42-3.73,2.27.83,4.14,1,5.59-1.45,3.1-.42,4.75a4.35,4.35,0,0,0,3.11,2.28c1,.21.62,1.65,2.27,2.89a30.59,30.59,0,0,1,2.9,2.49l5.79.82L209,221s8.07-15.31,9.72-17.37,10.14,1.65,15.51,5.58a34.06,34.06,0,0,1,8.28,8.69l1,1.24,1.66,1.24,2.68,4.76a37.89,37.89,0,0,0,4.76-4.14c1.66-1.86.62-4.55.62-4.55s.83.21,1.24-2.69-.2-2.9-.62-4.76,2.07-1.86,1.24-4.55-2.89-2.69-4.55-3.72.42-6.2-2.89-7.65-6-.83-6.62-.42-8.69-8.48-17.58-6.82S213.29,194.3,213.29,194.3Z" style="fill:#263238;stroke:#263238;stroke-linecap:round;stroke-linejoin:round"></path><path d="M209,221s1.66,12.82,4.14,16.55,9.1,7.23,12.2,8.89,7.65,1.45,8.89,0,10.35-7.86,11-9.93,0-16.13,0-16.13a19.1,19.1,0,0,0-2.69-10.55c-3.11-4.76-18.07-8.09-21.17-7.06s-13.79,14.3-13.79,14.3Z" style="fill:#fff;stroke:#263238;stroke-linecap:round;stroke-linejoin:round"></path><path d="M209.57,223.88s-4.76-4.35-5.38,1,7.45,8.69,7.45,8.69Z" style="fill:#fff;stroke:#263238;stroke-linecap:round;stroke-linejoin:round"></path><path d="M245.15,220.36s3.1-4.34,4.55-1.86,1.65,4.75-.21,7.86a25.27,25.27,0,0,1-4.14,5.17Z" style="fill:#fff;stroke:#263238;stroke-linecap:round;stroke-linejoin:round"></path><ellipse cx="221.92" cy="223.73" rx="1.38" ry="2.75" style="fill:#263238"></ellipse><path d="M236.4,222.43c0,1.51-.62,2.74-1.39,2.74s-1.38-1.23-1.38-2.74.62-2.75,1.38-2.75S236.4,220.91,236.4,222.43Z" style="fill:#263238"></path><path d="M225.7,229.46a5.71,5.71,0,0,0,7.45-1" style="fill:none;stroke:#263238;stroke-linecap:round;stroke-linejoin:round"></path><path d="M223,235s2.27,1.45,7.44,1a9.34,9.34,0,0,0,7.24-3.93" style="fill:none;stroke:#263238;stroke-linecap:round;stroke-linejoin:round"></path><path d="M215.36,221.19s1.24-5.59,8.48-4.35" style="fill:none;stroke:#263238;stroke-linecap:round;stroke-linejoin:round"></path><path d="M231.5,216s4.55-2.69,7.85,2.89" style="fill:none;stroke:#263238;stroke-linecap:round;stroke-linejoin:round"></path><path d="M234.15,320.74s12.18-5.86,14.83-5.08,4,6.18,3.18,6.48c-.43.16-14.85,4.21-17.13,4.51-2,.26-22.89-1.9-30.45-3.62s-10.47-8.12-7.44-10.21,12-5.47,14.79-4.46S234.15,320.74,234.15,320.74Z" style="fill:#fff;stroke:#263238;stroke-linecap:round;stroke-linejoin:round"></path><path d="M240,318.3s2.12-1.23,2.84-.16,3.42,5.23,3.42,5.23" style="fill:none;stroke:#263238;stroke-linecap:round;stroke-linejoin:round"></path><path d="M245.73,316.62a10.31,10.31,0,0,1,4,5.93" style="fill:none;stroke:#263238;stroke-linecap:round;stroke-linejoin:round"></path><path d="M239.13,318.81s3.56,3.28,4.22,5.48" style="fill:none;stroke:#263238;stroke-linecap:round;stroke-linejoin:round"></path><path d="M251.46,317.55a34.55,34.55,0,0,0,5.08.32c2.27-.09,2.32.94,1.24,1.89s-5.66,1.91-5.66,1.91S252.33,318.06,251.46,317.55Z" style="fill:#fff;stroke:#263238;stroke-linecap:round;stroke-linejoin:round"></path><path d="M239,323.26a2.73,2.73,0,0,0,1,1.69" style="fill:none;stroke:#263238;stroke-linecap:round;stroke-linejoin:round"></path><path d="M208.44,440.26,206.7,447s-6.88,7.18-7.78,10.17,2.1,3.29,3.89,3.59,16.75-.3,19.74-1.2,2-18.84,2-18.84Z" style="fill:#fff;stroke:#263238;stroke-linecap:round;stroke-linejoin:round"></path><path d="M213.58,456.91a58.84,58.84,0,0,1-14.75.7c-.52,2.62,2.27,2.91,4,3.19s16.75-.3,19.74-1.2c.9-.26,1.43-2.2,1.74-4.77C222,455.35,218.53,456.06,213.58,456.91Z" style="fill:#fff;stroke:#263238;stroke-linecap:round;stroke-linejoin:round"></path><path d="M266.41,440.26l1.74,6.78s6.88,7.18,7.78,10.17-2.1,3.29-3.89,3.59-16.75-.3-19.74-1.2-2-18.84-2-18.84Z" style="fill:#fff;stroke:#263238;stroke-linecap:round;stroke-linejoin:round"></path><path d="M261.27,456.91a58.83,58.83,0,0,0,14.75.7c.51,2.62-2.27,2.91-4,3.19s-16.75-.3-19.74-1.2c-.9-.26-1.43-2.2-1.74-4.77C252.85,455.35,256.31,456.06,261.27,456.91Z" style="fill:#fff;stroke:#263238;stroke-linecap:round;stroke-linejoin:round"></path><polygon points="207.5 328.32 208.44 440.26 224.52 440.76 235.95 354.01 238.12 354.94 250.17 440.79 266.4 440.26 263.35 325.63 207.5 328.32" style="fill:#263238;stroke:#263238;stroke-linecap:round;stroke-linejoin:round"></polygon></g><g id="freepik--characters-2--inject-78"><path d="M364.17,438.52a36.94,36.94,0,0,1-5.66,4.19c-2.19,1.09-6.56,3.72-9.84,5s-7.66,3.06-7,4.81,5.47,3.06,13.56,3.72,19.91-1.75,24.28-2,6.35-1.09,5.47-4.81-3.28-13.13-3.28-13.13Z" style="fill:#fff;stroke:#263238;stroke-linecap:round;stroke-linejoin:round"></path><path d="M385,449.49c-.05-.24-.12-.52-.19-.8a67.92,67.92,0,0,1-22.34,4.3c-10.19.4-16.75-.84-20.31-1.86a1.34,1.34,0,0,0-.47,1.42c.65,1.75,5.47,3.06,13.56,3.72s19.91-1.75,24.28-2S385.86,453.21,385,449.49Z" style="fill:#fff;stroke:#263238;stroke-linecap:round;stroke-linejoin:round"></path><path d="M332.41,260.35l-.19,21.28s-5.12,28.84-2.91,44.45,5.06,41.12,7.91,49,24.16,52.13,24.16,52.13-.32,4.75-.32,7,1.27,11.07,1.27,11.07.95,1,4.43,1.27,10.75-1.9,10.75-1.9S372,392.19,369.8,386.5s-7.9-25.63-7.27-31.32,17.71-55.68,17.71-55.68,8.48-15.11,7.85-25.23a67.35,67.35,0,0,0-3.17-17.08Z" style="fill:#263238;stroke:#263238;stroke-linecap:round;stroke-linejoin:round"></path><path d="M377.51,444.64a36,36,0,0,1-5.65,4.19c-2.19,1.1-6.57,3.72-9.85,5s-7.65,3.07-7,4.82,5.47,3.06,13.57,3.72,19.9-1.75,24.28-2,6.34-1.1,5.47-4.82-3.28-13.12-3.28-13.12Z" style="fill:#fff;stroke:#263238;stroke-linecap:round;stroke-linejoin:round"></path><path d="M398.33,455.61c-.06-.24-.12-.51-.19-.8a68.18,68.18,0,0,1-22.34,4.31c-10.2.4-16.76-.84-20.32-1.86a1.36,1.36,0,0,0-.47,1.42c.66,1.75,5.47,3.06,13.57,3.72s19.9-1.75,24.28-2S399.2,459.33,398.33,455.61Z" style="fill:#fff;stroke:#263238;stroke-linecap:round;stroke-linejoin:round"></path><path d="M359.26,297.79s-6.54,49.8-6.85,58,3.79,13.29,7.9,24.68,14.36,49,14.36,50.23-1.9,4.11-1.9,6,0,9.81,2.21,10.44,0,0,5.06,0,4.12,0,10.44-1.26,5.38-1.9,5.38-1.9l-1.27-8.23s-4.22-28.72-6.44-42.64-8.54-31-8.54-31,17.72-38,19.61-42.39,5.7-7,5.07-21.51-14-42.45-14-42.45-13.57,1.22-17.57,2.33a45.59,45.59,0,0,1-9,1.28" style="fill:#263238;stroke:#263238;stroke-linecap:round;stroke-linejoin:round"></path><path d="M358.74,304.24s-7.27,44.92-6.33,51.57,22.26,74.91,22.26,74.91" style="fill:none;stroke:gray;stroke-linecap:round;stroke-linejoin:round"></path><path d="M370.32,118.62s-6.52-5.79-14.19-6.08-12.46-.29-18.1,10.28-4.06,16.07-2.9,19-2.32,7.68-1.59,14.48,5.5,8.69,6.8,12.89-2.6,9.55-3.18,11.73,63.27,24.61,63.27,24.61,16.51-.87,18.24-13-17.8-15.64-18.09-20.56,9-17.09,2-26.06-13-3.33-17.52-9.7S379,119.78,374.8,117.6,370.32,118.62,370.32,118.62Z" style="fill:#263238;stroke:#263238;stroke-linecap:round;stroke-linejoin:round"></path><path d="M346.54,175.84s-18.89,5.11-21.78,10.89-6.89,22.45-6.45,28.68,12.16,42.71,12.16,42.71.34,7.9,3.51,7.4,48.06-4.73,52.95-5.62,4.16-1.52,3.35-4.11c-7.3-23.49,6-67.76,5.15-70.87s-8.21-6.86-19.1-8.63a114.7,114.7,0,0,0-16.45-1.78Z" style="fill:#0B9031;stroke:#263238;stroke-linecap:round;stroke-linejoin:round"></path><path d="M343.15,225.14s12,8.89,25.31,12.31" style="fill:none;stroke:#263238;stroke-linecap:round;stroke-linejoin:round"></path><path d="M365.62,241a32.85,32.85,0,0,0,5.23,1.56" style="fill:none;stroke:#263238;stroke-linecap:round;stroke-linejoin:round"></path><path d="M353.07,235.4s4.55,2.34,9.4,4.37" style="fill:none;stroke:#263238;stroke-linecap:round;stroke-linejoin:round"></path><path d="M319.42,206.29S326.31,193.62,329,191" style="fill:none;stroke:#263238;stroke-linecap:round;stroke-linejoin:round"></path><polygon points="344.1 164.95 345.43 195.18 366.55 176.06 366.33 162.95 344.1 164.95" style="fill:#fff;stroke:#263238;stroke-linecap:round;stroke-linejoin:round"></polygon><path d="M372.58,145.84s3.69-4.43,5.35-1.11-.74,8.13-2.77,10a15.7,15.7,0,0,1-4.62,2.77Z" style="fill:#fff;stroke:#263238;stroke-linecap:round;stroke-linejoin:round"></path><path d="M338.78,145.1s-3.7-2.21-4.43,1.29,6.28,11.09,6.28,11.09Z" style="fill:#fff;stroke:#263238;stroke-linecap:round;stroke-linejoin:round"></path><path d="M368.14,121.28s-19.75,6.92-22.71,8.77-7.76,7.66-7.39,9.7,2.4,22,4.25,24.19,7.11,9.56,12.65,7.71,13-6.79,13.76-9,6.4-11.68,3.79-19.85C369.68,134,368.14,121.28,368.14,121.28Z" style="fill:#fff;stroke:#263238;stroke-linecap:round;stroke-linejoin:round"></path><path d="M349.18,142.65c0,1.2-.56,2.17-1.23,2.17s-1.24-1-1.24-2.17.56-2.17,1.24-2.17S349.18,141.45,349.18,142.65Z" style="fill:#263238"></path><path d="M362.57,144.24c0,1.2-.55,2.18-1.23,2.18s-1.23-1-1.23-2.18.55-2.17,1.23-2.17S362.57,143.05,362.57,144.24Z" style="fill:#263238"></path><path d="M350.48,152.35s1.59,2.75,6.66.73" style="fill:none;stroke:#263238;stroke-linecap:round;stroke-linejoin:round"></path><path d="M347.58,156.12s3,2.6,6.52,2.31a19.47,19.47,0,0,0,7.09-2.46" style="fill:none;stroke:#263238;stroke-linecap:round;stroke-linejoin:round"></path><path d="M343.24,138.74s2.61-3.33,8-1.88" style="fill:none;stroke:#263238;stroke-linecap:round;stroke-linejoin:round"></path><path d="M358.88,138.31a6,6,0,0,1,7.53,2.75" style="fill:none;stroke:#263238;stroke-linecap:round;stroke-linejoin:round"></path><polygon points="211.81 405.24 250.87 403.5 224.48 374.65 227.2 371.93 256.05 398.32 257.79 359.25 261.64 359.25 263.38 398.21 288.04 374.78 290.77 377.5 268.37 403.54 298.94 405.24 298.94 409.09 268.26 410.8 289.95 437.15 287.23 439.87 263.37 416.24 261.64 455.07 257.79 455.07 256.05 416.01 227.2 442.4 224.48 439.68 250.87 410.83 211.81 409.09 211.81 405.24" style="fill:#263238;stroke:#263238;stroke-linecap:round;stroke-linejoin:round"></polygon><path d="M255.05,350c23.68,0,42.87,25.45,42.87,56.85s-19.19,56.84-42.87,56.84-42.87-25.45-42.87-56.84S231.37,350,255.05,350Zm0,104.49c19.84,0,35.93-21.33,35.93-47.64s-16.09-47.64-35.93-47.64-35.93,21.33-35.93,47.64S235.21,454.47,255.05,454.47Z" style="fill:#263238;stroke:#263238;stroke-linecap:round;stroke-linejoin:round"></path><path d="M261.86,356c21.18,0,38.34,22.76,38.34,50.84S283,457.67,261.86,457.67s-38.34-22.76-38.34-50.84S240.68,356,261.86,356Zm0,97.32c19.36,0,35.06-20.81,35.06-46.48s-15.7-46.49-35.06-46.49-35.06,20.82-35.06,46.49S242.5,453.31,261.86,453.31Z" style="fill:#a3a3a3;stroke:#263238;stroke-linecap:round;stroke-linejoin:round"></path><path d="M253.68,338.42H213.74A16.65,16.65,0,0,0,197.11,355v51.71a16.65,16.65,0,0,0,16.63,16.63h39.94a16.65,16.65,0,0,0,16.62-16.63V355A16.64,16.64,0,0,0,253.68,338.42Zm10.19,68.33A10.21,10.21,0,0,1,253.68,417H213.74a10.21,10.21,0,0,1-10.2-10.2V355a10.2,10.2,0,0,1,10.2-10.19h39.94A10.2,10.2,0,0,1,263.87,355Z" style="fill:#fff;stroke:#263238;stroke-linecap:round;stroke-linejoin:round"></path><polygon points="271.97 372.22 334.6 372.22 340.9 272.73 303.27 272.73 271.97 372.22" style="fill:#fff;stroke:#263238;stroke-linecap:round;stroke-linejoin:round"></polygon><path d="M278.9,315s-42.84,11-45.14,12-7.39,5.35-8.67,6.12-3.82,1.27-3.82,2.55v1.27L282,330.06l.26-16.58Z" style="fill:#0B9031;stroke:#263238;stroke-linecap:round;stroke-linejoin:round"></path><path d="M238.67,325.54c-2.67.74-4.48,1.27-4.91,1.46-2.29,1-7.39,5.35-8.67,6.12s-3.82,1.27-3.82,2.55v1.27l18.14-2.06Z" style="fill:#fff;stroke:#263238;stroke-linecap:round;stroke-linejoin:round"></path><rect x="177.76" y="453.19" width="44.22" height="4.68" transform="translate(399.73 911.06) rotate(180)" style="fill:#a3a3a3;stroke:#263238;stroke-linecap:round;stroke-linejoin:round"></rect><rect x="206.47" y="455.75" width="44.22" height="4.68" transform="translate(457.15 916.17) rotate(180)" style="fill:#a3a3a3;stroke:#263238;stroke-linecap:round;stroke-linejoin:round"></rect><rect x="217.45" y="358.64" width="120.46" height="20.82" transform="translate(555.36 738.11) rotate(180)" style="fill:#263238;stroke:#263238;stroke-linecap:round;stroke-linejoin:round"></rect><path d="M210.11,394.2H342a3.22,3.22,0,1,0,0-6.43H210.11a3.22,3.22,0,1,0,0,6.43Z" style="fill:#fff;stroke:#263238;stroke-linecap:round;stroke-linejoin:round"></path><path d="M215.17,419.55s-2.28,16.18-2.28,21.16-.42,8.72-2.49,9.75a28.21,28.21,0,0,1-7.68,2.91c-4.77,1.24-16,1.45-20.13.41s-4.36-3.52-2.07-7.47S190.68,437,193.8,433a44.66,44.66,0,0,0,5.6-9.95c.21-.63,1.45-4.15,1.45-4.15Z" style="fill:#fff;stroke:#263238;stroke-linecap:round;stroke-linejoin:round"></path><path d="M193.8,433a42.17,42.17,0,0,0,4.61-7.68c2.35.33,6.51,1.11,8.25,2.71a22.92,22.92,0,0,1,3.94,4.77l2.93-.31c-.36,3.32-.64,6.45-.64,8.19,0,5-.42,8.72-2.49,9.75a28.21,28.21,0,0,1-7.68,2.91c-4.77,1.24-16,1.45-20.13.41s-4.36-3.52-2.07-7.47S190.68,437,193.8,433Z" style="fill:#263238;stroke:#263238;stroke-linecap:round;stroke-linejoin:round"></path><path d="M253.32,331.2s-61.61,9.58-65.65,16.59S191,418.63,191,418.63s9.16,3.23,15.89,3.77a73.1,73.1,0,0,0,10.24.27l-3.1-56.84,19.8.27,54.68-7.81S285.66,334.06,253.32,331.2Z" style="fill:#595959;stroke:#263238;stroke-linecap:round;stroke-linejoin:round"></path><path d="M250.86,426.6s-1.25,26.56-1.46,28-5,1.46-8.5,2.29-24.07,0-31.13-1.66c-2.44-.58-7.26-3.74-6-7.47s7.88-3.32,13.28-3.74,11.62-5,12.24-5.6,5-10,5-10Z" style="fill:#fff;stroke:#263238;stroke-linecap:round;stroke-linejoin:round"></path><path d="M217,444c5.39-.41,11.62-5,12.24-5.6a37.94,37.94,0,0,0,2.26-4.26,7.33,7.33,0,0,1,4,2.18c1.87,2.08,1.87,6,1.87,6s8.48-.54,12.78-1.08c-.32,6.41-.65,12.64-.75,13.32-.2,1.46-5,1.46-8.5,2.29s-24.07,0-31.13-1.66c-2.44-.58-7.26-3.74-6-7.47S211.64,444.45,217,444Z" style="fill:#263238;stroke:#263238;stroke-linecap:round;stroke-linejoin:round"></path><path d="M306.57,373.86l-62.77-.73,10,56.54s-15.89,1.89-26.67-.27c0,0-17-71.65-14.83-77.84s72.21-7.81,72.21-7.81S302.9,358.45,306.57,373.86Z" style="fill:#595959;stroke:#263238;stroke-linecap:round;stroke-linejoin:round"></path><path d="M351.88,278.32H368a4.29,4.29,0,0,0,0-8.57H351.88a4.29,4.29,0,1,0,0,8.57Z" style="fill:#263238"></path><path d="M337.32,344.63a3.23,3.23,0,0,0,3.2-2.95L346,277.25h5.89a3.22,3.22,0,0,0,0-6.43H343a3.21,3.21,0,0,0-3.2,2.94l-5.72,67.38a3.21,3.21,0,0,0,2.93,3.47Z" style="fill:#fff;stroke:#263238;stroke-linecap:round;stroke-linejoin:round"></path><path d="M251.21,460.78h6.24a3.22,3.22,0,0,0,3.22-3.21V406.88a1.12,1.12,0,0,1,1.12-1.12h14.65a3.22,3.22,0,1,0,0-6.43H261.79a7.56,7.56,0,0,0-7.55,7.55v47.47h-3a3.22,3.22,0,1,0,0,6.43Z" style="fill:#fff;stroke:#263238;stroke-linecap:round;stroke-linejoin:round"></path><path d="M296,272.86,272,326a8.22,8.22,0,0,0-1.07,5.17,6.66,6.66,0,0,0,4.63,4.81c1.78.35,17.11.89,17.11.89s9.26-69.13,8.91-70.38S296.74,271.79,296,272.86Z" style="fill:#fff;stroke:#263238;stroke-linecap:round;stroke-linejoin:round"></path><path d="M299.23,250.77l-10.87,7s5.52,9.08,5.52,10-4.63,17.81-5.34,20.13-1.6,5.88-1.6,5.88L301,261.46Z" style="fill:#0B9031;stroke:#263238;stroke-linecap:round;stroke-linejoin:round"></path><polygon points="288.36 257.72 287.29 271.08 293.88 267.69 288.36 257.72" style="fill:#0B9031;stroke:#263238;stroke-linecap:round;stroke-linejoin:round"></polygon><path d="M283.11,200.75s-3.25-1.47-3.25-4.55,3.08-7.31,4.55-8.61,9.1-3.58,19.33-2,14.63,2.6,16.09,6.33,2.44,19.83,2.27,21.94-2.11,5.52-4.55,6.17-5-2.76-6-5.36-3.9-6.5-3.9-8.12,1.95-8.94.65-10.24-6.5-1.3-8.77.16A11.44,11.44,0,0,1,293,199a22.56,22.56,0,0,1-7.8-.65Z" style="fill:#263238;stroke:#263238;stroke-linecap:round;stroke-linejoin:round"></path><path d="M282.13,199s-1.3,12-1,15.6-1.14,5.69-1,11.05,5,12.67,6.18,14.95,2.76,5.52,5,6a16.52,16.52,0,0,0,5.2,0l6,11.86,20.64-20.64-2.44-8.93s4.72-3.25,5.37-7.64.48-6.82-1.95-7.47-6,.48-6,.48l-.81,2.77-1.79.81s-1.13-3.58-1.78-4.88-2.6-2-2.93-4.87,2.76-6.18,2.76-8.45-.32-6.83-6.66-7.31-11.05,3.41-13.16,3.9-2.76-2.12-5.85-2.93S282.13,195.87,282.13,199Z" style="fill:#fff;stroke:#263238;stroke-linecap:round;stroke-linejoin:round"></path><path d="M286.68,226.09a3.75,3.75,0,0,0,3.09,3.09,11.36,11.36,0,0,0,5.85-1" style="fill:none;stroke:#263238;stroke-linecap:round;stroke-linejoin:round"></path><path d="M288,234.06a16.61,16.61,0,0,0,13.16-2.93" style="fill:none;stroke:#263238;stroke-linecap:round;stroke-linejoin:round"></path><line x1="299.52" y1="229.99" x2="302.6" y2="231.94" style="fill:none;stroke:#263238;stroke-linecap:round;stroke-linejoin:round"></line><path d="M296.59,246.57s7.8-1.79,9.75-3.09,4.39-3.25,4.39-3.25l-11.21,12.19Z" style="fill:#263238;stroke:#263238;stroke-linecap:round;stroke-linejoin:round"></path><path d="M305,213.42c-3.08-3.57-8.45-1.62-8.45-1.62" style="fill:none;stroke:#263238;stroke-linecap:round;stroke-linejoin:round"></path><path d="M287.49,212.45a4.7,4.7,0,0,0-5.85-.17" style="fill:none;stroke:#263238;stroke-linecap:round;stroke-linejoin:round"></path><path d="M287.17,218.46c0,1.16-.47,2.11-1.06,2.11s-1.05-.95-1.05-2.11.47-2.11,1.05-2.11S287.17,217.29,287.17,218.46Z" style="fill:#263238"></path><ellipse cx="301.75" cy="218.7" rx="1.26" ry="2.52" style="fill:#263238"></ellipse><path d="M296.74,256.11l-.54,19.6L285,339.5s-1.61,9.8,1.42,17.46,25.33,22.52,25.33,22.52l18.5-21.27S340,316.52,342,296.38s5.35-30.47-1.07-39.38a78.59,78.59,0,0,0-15.14-15.32Z" style="fill:#0B9031;stroke:#263238;stroke-linecap:round;stroke-linejoin:round"></path><polygon points="322.93 233.84 296.74 256.11 301.9 263.24 329.34 242.75 322.93 233.84" style="fill:#0B9031;stroke:#263238;stroke-linecap:round;stroke-linejoin:round"></polygon><path d="M322,258.07s-13.72,9.63-14.61,15.51-8,42.76-8,42.76-35.64,5.34-36.53,5.52-3.38,2.85-3.38,5.35a18.19,18.19,0,0,0,1.06,5.34s36,7.66,42.23,10.16,8.73,3.56,14.61-.89,23.34-50.25,23.88-54.88a57.16,57.16,0,0,0-.36-13.19" style="fill:#0B9031;stroke:#263238;stroke-linecap:round;stroke-linejoin:round"></path><path d="M299.41,317.76a25.29,25.29,0,0,0-.18,8.73" style="fill:none;stroke:#263238;stroke-linecap:round;stroke-linejoin:round"></path><path d="M297.27,317.58s-4.63,9.8-4.28,15.86" style="fill:none;stroke:#263238;stroke-linecap:round;stroke-linejoin:round"></path><path d="M267.51,321.33s-4.81,4.45-1.78,11.58" style="fill:none;stroke:#263238;stroke-linecap:round;stroke-linejoin:round"></path><path d="M262.88,321.86s-8.19.89-11,2.32-4.27,4.81-4.81,6.41l-.53,1.61,14.07.35s-1.42-5.17-.35-7.13A17.85,17.85,0,0,1,262.88,321.86Z" style="fill:#fff;stroke:#263238;stroke-linecap:round;stroke-linejoin:round"></path><rect x="276.7" y="353.64" width="68.93" height="24.71" transform="translate(622.34 731.99) rotate(180)" style="fill:#fff;stroke:#263238;stroke-linecap:round;stroke-linejoin:round"></rect><path d="M290,423.38H330a16.64,16.64,0,0,0,16.62-16.63V355A16.64,16.64,0,0,0,330,338.42H290A16.65,16.65,0,0,0,273.4,355v51.71A16.65,16.65,0,0,0,290,423.38ZM330,344.85A10.2,10.2,0,0,1,340.16,355v51.71A10.21,10.21,0,0,1,330,417H290a10.22,10.22,0,0,1-10.2-10.2V355A10.21,10.21,0,0,1,290,344.85Z" style="fill:#fff;stroke:#263238;stroke-linecap:round;stroke-linejoin:round"></path><circle cx="286.85" cy="450.93" r="12.75" style="fill:#fff;stroke:#263238;stroke-linecap:round;stroke-linejoin:round"></circle><circle cx="286.85" cy="450.93" r="8.55" transform="translate(-234.84 334.9) rotate(-45)" style="fill:#263238;stroke:#263238;stroke-linecap:round;stroke-linejoin:round"></circle><path d="M277.48,434.28h9.89l2.1,16.55a2.37,2.37,0,0,1-1.6,2.53h0A2.36,2.36,0,0,1,285,452Z" style="fill:#fff;stroke:#263238;stroke-linecap:round;stroke-linejoin:round"></path><path d="M278.26,439.05a3.22,3.22,0,0,0,3.22-3.21V407a3.22,3.22,0,0,0-6.43,0v28.88A3.21,3.21,0,0,0,278.26,439.05Z" style="fill:#fff;stroke:#263238;stroke-linecap:round;stroke-linejoin:round"></path><polygon points="301.31 405.24 340.37 403.5 313.98 374.65 316.7 371.93 345.56 398.32 347.3 359.25 351.15 359.25 352.88 398.21 377.55 374.78 380.27 377.5 357.87 403.54 388.44 405.24 388.44 409.09 357.76 410.8 379.45 437.15 376.73 439.87 352.88 416.24 351.15 455.07 347.3 455.07 345.56 416.01 316.7 442.4 313.98 439.68 340.37 410.83 301.31 409.09 301.31 405.24" style="fill:#263238;stroke:#263238;stroke-linecap:round;stroke-linejoin:round"></polygon><path d="M344.55,350c23.68,0,42.87,25.45,42.87,56.85s-19.19,56.84-42.87,56.84-42.87-25.45-42.87-56.84S320.88,350,344.55,350Zm0,104.49c19.85,0,35.93-21.33,35.93-47.64s-16.08-47.64-35.93-47.64-35.93,21.33-35.93,47.64S324.71,454.47,344.55,454.47Z" style="fill:#263238;stroke:#263238;stroke-linecap:round;stroke-linejoin:round"></path><path d="M351.36,356c21.18,0,38.34,22.76,38.34,50.84s-17.16,50.84-38.34,50.84S313,434.91,313,406.83,330.19,356,351.36,356Zm0,97.32c19.36,0,35.06-20.81,35.06-46.48s-15.7-46.49-35.06-46.49-35.05,20.82-35.05,46.49S332,453.31,351.36,453.31Z" style="fill:#a3a3a3;stroke:#263238;stroke-linecap:round;stroke-linejoin:round"></path><path d="M383.85,200.86s7.08,29.23,7.31,31.89,3.46,6.4,3.46,6.4l-17.56,11.11s-7.83,2.24-9.13,5.26c0,0-2.83.91-.25,4.93,0,0,3.62.57,8.05,5.32l3.89-1.45a4,4,0,0,0,4,1.89c2.88-.25,7.58-2.67,17.4-7.76s18.08-7.59,16.94-13.07-10.43-43-15.74-52.85S389.36,179.09,385.56,179" style="fill:#0B9031;stroke:#263238;stroke-linecap:round;stroke-linejoin:round"></path><path d="M407.53,242.45a9.64,9.64,0,0,1,1.78,1.45" style="fill:none;stroke:#263238;stroke-linecap:round;stroke-linejoin:round"></path><path d="M396.89,239.62a28.15,28.15,0,0,1,6.61,1.06" style="fill:none;stroke:#263238;stroke-linecap:round;stroke-linejoin:round"></path><path d="M405.15,237.12s-6.76-.76-10.53,2" style="fill:none;stroke:#263238;stroke-linecap:round;stroke-linejoin:round"></path><path d="M358,264.09s-7.75,5.24-8.1,6.73-3.45,9.72-2.34,10.16,2.22,1.11,3.33.89a8.15,8.15,0,0,0,2.67-1.55s5.33.44,7.33.66a7,7,0,0,0,7.34-5.11,51.48,51.48,0,0,1,2.89-7.56l4.67-3.78s-3.11-4.22-5.34-5.11l-2.22-.89Z" style="fill:#fff;stroke:#263238;stroke-linecap:round;stroke-linejoin:round"></path></g></svg>
